<?xml version="1.0" encoding="UTF-8"?>
<svg xmlns="http://www.w3.org/2000/svg" xmlns:xlink="http://www.w3.org/1999/xlink" viewBox="0 0 96 96" width="96px" height="96px">
<g id="surface47572852">
<path style=" stroke:none;fill-rule:nonzero;fill:rgb(5.490196%,15.686275%,60.000002%);fill-opacity:1;" d="M 84 24.859375 C 81.355469 26.03125 78.507812 26.8125 75.507812 27.183594 C 78.558594 25.371094 80.90625 22.480469 82.007812 19.066406 C 79.152344 20.738281 75.988281 21.96875 72.621094 22.617188 C 69.933594 19.769531 66.101562 18 61.851562 18 C 53.691406 18 47.078125 24.554688 47.078125 32.640625 C 47.078125 33.785156 47.210938 34.898438 47.464844 35.980469 C 35.1875 35.363281 24.300781 29.527344 17.015625 20.671875 C 15.734375 22.835938 15.015625 25.371094 15.015625 28.042969 C 15.015625 33.125 17.617188 37.601562 21.585938 40.234375 C 19.164062 40.160156 16.882812 39.488281 14.886719 38.40625 C 14.886719 38.453125 14.886719 38.519531 14.886719 38.578125 C 14.886719 45.683594 19.980469 51.597656 26.734375 52.941406 C 25.5 53.28125 24.195312 53.46875 22.851562 53.46875 C 21.898438 53.46875 20.96875 53.359375 20.066406 53.199219 C 21.949219 59.003906 27.402344 63.242188 33.863281 63.371094 C 28.808594 67.289062 22.441406 69.636719 15.515625 69.636719 C 14.320312 69.636719 13.148438 69.570312 11.992188 69.429688 C 18.535156 73.570312 26.304688 76 34.640625 76 C 61.8125 76 76.675781 53.6875 76.675781 34.332031 C 76.675781 33.699219 76.65625 33.066406 76.625 32.441406 C 79.527344 30.394531 82.027344 27.808594 84 24.859375 "/>
</g>
</svg>
